<svg xmlns="http://www.w3.org/2000/svg" viewBox="0 0 64 64" role="img" aria-label="Cereza">
  <defs>
    <linearGradient id="cherryRed" x1="0" y1="0" x2="1" y2="1">
      <stop offset="0" stop-color="#ff4d6d"/>
      <stop offset="1" stop-color="#b91c1c"/>
    </linearGradient>
    <linearGradient id="cherryRed2" x1="0" y1="1" x2="1" y2="0">
      <stop offset="0" stop-color="#fb7185"/>
      <stop offset="1" stop-color="#991b1b"/>
    </linearGradient>
    <linearGradient id="leafGreen" x1="0" y1="0" x2="1" y2="1">
      <stop offset="0" stop-color="#22c55e"/>
      <stop offset="1" stop-color="#15803d"/>
    </linearGradient>
  </defs>

  <!-- Tallos -->
  <path d="M33 20c0-7 7-13 16-12 2 0 3 2 1 3-7 2-10 7-10 11 0 5-4 8-7 10-2 1-4-1-3-3 2-2 3-4 3-9Z" fill="#14532d" opacity="0.95"/>
  <path d="M32 22c-2-8-10-13-18-11-2 0-3 2-1 3 7 2 11 7 12 12 1 6 5 9 9 11 2 1 4-1 3-3-2-2-4-5-5-12Z" fill="#166534" opacity="0.95"/>

  <!-- Hoja -->
  <path d="M44 10c7 0 12 5 12 11 0 2-2 3-3 1-3-5-7-7-12-7-3 0-4-4 3-5Z" fill="url(#leafGreen)"/>
  <path d="M40 14c4 0 8 3 10 7" fill="none" stroke="#065f46" stroke-width="2.6" stroke-linecap="round" opacity="0.65"/>

  <!-- Cereza izquierda -->
  <circle cx="22" cy="41" r="14.5" fill="url(#cherryRed2)"/>
  <path d="M13 37c2-6 7-9 13-9" fill="none" stroke="#fff" stroke-opacity="0.55" stroke-width="3.2" stroke-linecap="round"/>
  <path d="M16 51c3 3 7 5 12 4" fill="none" stroke="#7f1d1d" stroke-opacity="0.35" stroke-width="3.5" stroke-linecap="round"/>

  <!-- Cereza derecha -->
  <circle cx="41" cy="43" r="13.5" fill="url(#cherryRed)"/>
  <path d="M33 40c2-5 6-7 11-7" fill="none" stroke="#fff" stroke-opacity="0.5" stroke-width="3" stroke-linecap="round"/>
  <path d="M35 54c3 2 7 3 11 1" fill="none" stroke="#7f1d1d" stroke-opacity="0.3" stroke-width="3.2" stroke-linecap="round"/>
</svg>
